<svg width="24" height="24" viewBox="0 0 24 24" fill="none" xmlns="http://www.w3.org/2000/svg">
<path d="M6.86023 13.03H4.80023C3.66023 13.03 2.74023 12.11 2.74023 10.98V4.82002C2.74023 3.69002 3.66023 2.77002 4.80023 2.77002H19.1902C20.3302 2.77002 21.2502 3.69002 21.2502 4.82002V10.98C21.2502 12.11 20.3302 13.03 19.1902 13.03H17.1302" stroke="currentColor" stroke-width="1.5" stroke-linecap="round" stroke-linejoin="round"/>
<path d="M17.1404 7.89014V19.5101C17.1404 20.4701 16.3604 21.2601 15.3904 21.2601H8.61035C7.65035 21.2601 6.86035 20.4801 6.86035 19.5101V7.89014H17.1404Z" stroke="currentColor" stroke-width="1.5" stroke-linecap="round" stroke-linejoin="round"/>
<path d="M9.87012 17.2401V8.79004" stroke="currentColor" stroke-width="1.5" stroke-linecap="round" stroke-linejoin="round"/>
<path d="M14.0801 17.1198V16.0898" stroke="currentColor" stroke-width="1.5" stroke-linecap="round" stroke-linejoin="round"/>
<path d="M5.83008 7.89014H18.1701" stroke="currentColor" stroke-width="1.5" stroke-linecap="round" stroke-linejoin="round"/>
</svg>
