<svg width="72" height="72" viewBox="0 0 72 72" fill="none" xmlns="http://www.w3.org/2000/svg">
<mask id="path-1-inside-1_3265_19739" fill="white">
<path fill-rule="evenodd" clip-rule="evenodd" d="M36.0001 9.91753C30.4624 9.91753 25.8602 13.9233 24.9332 19.1953H26.447C28.25 19.1953 29.7117 20.6569 29.7117 22.4599V24.1465H42.2886V22.4599C42.2886 20.6569 43.7502 19.1953 45.5532 19.1953H47.067C46.14 13.9233 41.5378 9.91753 36.0001 9.91753ZM36.0001 6C28.2944 6 21.9319 11.7512 20.971 19.1953H19.1618C17.3588 19.1953 15.8972 20.6569 15.8972 22.4599V24.1465H11.2578H9.67899H9.60864H9.60818V24.1477C8.647 24.1821 7.84806 24.9123 7.73388 25.8744L5.18896 47.3177C5.11618 47.9309 5.33686 48.5426 5.78441 48.9681C6.23196 49.3936 6.85398 49.5832 7.46277 49.4795C7.66426 49.4452 7.87464 49.4098 8.09342 49.3734L7.32612 58.1973C6.96123 62.3936 10.2691 66.0017 14.4813 66.0017H57.5197C61.7318 66.0017 65.0397 62.3936 64.6748 58.1973L63.9075 49.3736C64.126 49.4099 64.336 49.4453 64.5372 49.4795C65.1449 49.583 65.7658 49.3943 66.2133 48.9703C66.6607 48.5463 66.8824 47.9364 66.8118 47.324L64.3376 25.8807C64.2235 24.8925 63.3869 24.1467 62.3922 24.1465H62.3917H56.103V22.4599C56.103 20.6569 54.6414 19.1953 52.8384 19.1953H51.0293C50.0683 11.7512 43.7058 6 36.0001 6ZM19.8147 23.1128V24.1438H25.7941V23.1128H19.8147ZM12.0804 48.7447L11.2289 58.5367C11.0631 60.4441 12.5667 62.0841 14.4813 62.0841H57.5197C59.4343 62.0841 60.9379 60.4441 60.772 58.5367L59.9206 48.7449C55.2827 48.0484 49.1692 47.2405 43.5478 46.7579C42.7791 50.2183 39.6916 52.8057 35.9998 52.8057C32.308 52.8057 29.2205 50.2183 28.4518 46.7579C22.8308 47.2405 16.718 48.0483 12.0804 48.7447ZM28.6034 42.8137C29.5701 39.6461 32.5158 37.3418 35.9998 37.3418C39.4837 37.3418 42.4295 39.646 43.3962 42.8137C50.16 43.3748 57.6677 44.4152 62.6228 45.1971L60.6459 28.064H11.419L9.38582 45.1957C14.3409 44.414 21.8437 43.3745 28.6034 42.8137ZM46.2061 24.1438V23.1128H52.1855V24.1438H46.2061ZM32.1853 45.0738C32.1853 42.9671 33.8931 41.2593 35.9998 41.2593C38.1064 41.2593 39.8142 42.9671 39.8142 45.0738C39.8142 47.1804 38.1064 48.8882 35.9998 48.8882C33.8931 48.8882 32.1853 47.1804 32.1853 45.0738Z"/>
</mask>
<path fill-rule="evenodd" clip-rule="evenodd" d="M36.0001 9.91753C30.4624 9.91753 25.8602 13.9233 24.9332 19.1953H26.447C28.25 19.1953 29.7117 20.6569 29.7117 22.4599V24.1465H42.2886V22.4599C42.2886 20.6569 43.7502 19.1953 45.5532 19.1953H47.067C46.14 13.9233 41.5378 9.91753 36.0001 9.91753ZM36.0001 6C28.2944 6 21.9319 11.7512 20.971 19.1953H19.1618C17.3588 19.1953 15.8972 20.6569 15.8972 22.4599V24.1465H11.2578H9.67899H9.60864H9.60818V24.1477C8.647 24.1821 7.84806 24.9123 7.73388 25.8744L5.18896 47.3177C5.11618 47.9309 5.33686 48.5426 5.78441 48.9681C6.23196 49.3936 6.85398 49.5832 7.46277 49.4795C7.66426 49.4452 7.87464 49.4098 8.09342 49.3734L7.32612 58.1973C6.96123 62.3936 10.2691 66.0017 14.4813 66.0017H57.5197C61.7318 66.0017 65.0397 62.3936 64.6748 58.1973L63.9075 49.3736C64.126 49.4099 64.336 49.4453 64.5372 49.4795C65.1449 49.583 65.7658 49.3943 66.2133 48.9703C66.6607 48.5463 66.8824 47.9364 66.8118 47.324L64.3376 25.8807C64.2235 24.8925 63.3869 24.1467 62.3922 24.1465H62.3917H56.103V22.4599C56.103 20.6569 54.6414 19.1953 52.8384 19.1953H51.0293C50.0683 11.7512 43.7058 6 36.0001 6ZM19.8147 23.1128V24.1438H25.7941V23.1128H19.8147ZM12.0804 48.7447L11.2289 58.5367C11.0631 60.4441 12.5667 62.0841 14.4813 62.0841H57.5197C59.4343 62.0841 60.9379 60.4441 60.772 58.5367L59.9206 48.7449C55.2827 48.0484 49.1692 47.2405 43.5478 46.7579C42.7791 50.2183 39.6916 52.8057 35.9998 52.8057C32.308 52.8057 29.2205 50.2183 28.4518 46.7579C22.8308 47.2405 16.718 48.0483 12.0804 48.7447ZM28.6034 42.8137C29.5701 39.6461 32.5158 37.3418 35.9998 37.3418C39.4837 37.3418 42.4295 39.646 43.3962 42.8137C50.16 43.3748 57.6677 44.4152 62.6228 45.1971L60.6459 28.064H11.419L9.38582 45.1957C14.3409 44.414 21.8437 43.3745 28.6034 42.8137ZM46.2061 24.1438V23.1128H52.1855V24.1438H46.2061ZM32.1853 45.0738C32.1853 42.9671 33.8931 41.2593 35.9998 41.2593C38.1064 41.2593 39.8142 42.9671 39.8142 45.0738C39.8142 47.1804 38.1064 48.8882 35.9998 48.8882C33.8931 48.8882 32.1853 47.1804 32.1853 45.0738Z" fill="#1A1A1A"/>
<path d="M24.9332 19.1953L24.4408 19.1087L24.3376 19.6953H24.9332V19.1953ZM29.7117 24.1465H29.2117V24.6465H29.7117V24.1465ZM42.2886 24.1465V24.6465H42.7886V24.1465H42.2886ZM47.067 19.1953V19.6953H47.6626L47.5594 19.1087L47.067 19.1953ZM20.971 19.1953V19.6953H21.4106L21.4668 19.2593L20.971 19.1953ZM15.8972 24.1465V24.6465H16.3972V24.1465H15.8972ZM9.60818 24.1465V23.6465H9.10818V24.1465H9.60818ZM9.60818 24.1477L9.62602 24.6474L10.1082 24.6302V24.1477H9.60818ZM7.73388 25.8744L8.2304 25.9333L7.73388 25.8744ZM5.18896 47.3177L5.68548 47.3766L5.18896 47.3177ZM5.78441 48.9681L5.43989 49.3305H5.43989L5.78441 48.9681ZM7.46277 49.4795L7.54667 49.9725H7.54667L7.46277 49.4795ZM8.09342 49.3734L8.59154 49.4167L8.6474 48.7743L8.01132 48.8802L8.09342 49.3734ZM7.32612 58.1973L6.828 58.154L7.32612 58.1973ZM64.6748 58.1973L65.1729 58.154L64.6748 58.1973ZM63.9075 49.3736L63.9897 48.8804L63.3536 48.7745L63.4094 49.4169L63.9075 49.3736ZM64.5372 49.4795L64.4533 49.9725H64.4533L64.5372 49.4795ZM66.8118 47.324L66.3151 47.3813L66.8118 47.324ZM64.3376 25.8807L63.8408 25.938L64.3376 25.8807ZM62.3922 24.1465L62.3923 23.6465H62.3922V24.1465ZM56.103 24.1465H55.603V24.6465H56.103V24.1465ZM51.0293 19.1953L50.5334 19.2593L50.5896 19.6953H51.0293V19.1953ZM19.8147 24.1438H19.3147V24.6438H19.8147V24.1438ZM19.8147 23.1128V22.6128H19.3147V23.1128H19.8147ZM25.7941 24.1438V24.6438H26.2941V24.1438H25.7941ZM25.7941 23.1128H26.2941V22.6128H25.7941V23.1128ZM11.2289 58.5367L11.727 58.58L11.2289 58.5367ZM12.0804 48.7447L12.0062 48.2503L11.6164 48.3088L11.5823 48.7014L12.0804 48.7447ZM60.772 58.5367L60.2739 58.58L60.772 58.5367ZM59.9206 48.7449L60.4187 48.7015L60.3845 48.3089L59.9948 48.2504L59.9206 48.7449ZM43.5478 46.7579L43.5906 46.2597L43.1546 46.2223L43.0597 46.6495L43.5478 46.7579ZM28.4518 46.7579L28.9399 46.6495L28.845 46.2223L28.409 46.2598L28.4518 46.7579ZM28.6034 42.8137L28.6447 43.312L28.9826 43.284L29.0816 42.9596L28.6034 42.8137ZM43.3962 42.8137L42.918 42.9596L43.0169 43.2839L43.3549 43.312L43.3962 42.8137ZM62.6228 45.1971L62.5449 45.691L63.195 45.7935L63.1195 45.1398L62.6228 45.1971ZM60.6459 28.064L61.1427 28.0067L61.0916 27.564H60.6459V28.064ZM11.419 28.064V27.564H10.9749L10.9225 28.0051L11.419 28.064ZM9.38582 45.1957L8.88931 45.1368L8.81149 45.7925L9.46373 45.6896L9.38582 45.1957ZM46.2061 23.1128V22.6128H45.7061V23.1128H46.2061ZM46.2061 24.1438H45.7061V24.6438H46.2061V24.1438ZM52.1855 23.1128H52.6855V22.6128H52.1855V23.1128ZM52.1855 24.1438V24.6438H52.6855V24.1438H52.1855ZM25.4257 19.2819C26.3113 14.2448 30.7093 10.4175 36.0001 10.4175V9.41753C30.2154 9.41753 25.4091 13.6018 24.4408 19.1087L25.4257 19.2819ZM26.447 18.6953H24.9332V19.6953H26.447V18.6953ZM30.2117 22.4599C30.2117 20.3808 28.5262 18.6953 26.447 18.6953V19.6953C27.9739 19.6953 29.2117 20.9331 29.2117 22.4599H30.2117ZM30.2117 24.1465V22.4599H29.2117V24.1465H30.2117ZM42.2886 23.6465H29.7117V24.6465H42.2886V23.6465ZM41.7886 22.4599V24.1465H42.7886V22.4599H41.7886ZM45.5532 18.6953C43.474 18.6953 41.7886 20.3808 41.7886 22.4599H42.7886C42.7886 20.9331 44.0263 19.6953 45.5532 19.6953V18.6953ZM47.067 18.6953H45.5532V19.6953H47.067V18.6953ZM36.0001 10.4175C41.2909 10.4175 45.6889 14.2448 46.5746 19.2819L47.5594 19.1087C46.5911 13.6018 41.7848 9.41753 36.0001 9.41753V10.4175ZM21.4668 19.2593C22.396 12.0613 28.549 6.5 36.0001 6.5V5.5C28.0397 5.5 21.4678 11.4411 20.4751 19.1313L21.4668 19.2593ZM19.1618 19.6953H20.971V18.6953H19.1618V19.6953ZM16.3972 22.4599C16.3972 20.9331 17.635 19.6953 19.1618 19.6953V18.6953C17.0827 18.6953 15.3972 20.3808 15.3972 22.4599H16.3972ZM16.3972 24.1465V22.4599H15.3972V24.1465H16.3972ZM11.2578 24.6465H15.8972V23.6465H11.2578V24.6465ZM9.67899 24.6465H11.2578V23.6465H9.67899V24.6465ZM9.60864 24.6465H9.67899V23.6465H9.60864V24.6465ZM9.60818 24.6465H9.60864V23.6465H9.60818V24.6465ZM10.1082 24.1477V24.1465H9.10818V24.1477H10.1082ZM8.2304 25.9333C8.31542 25.2169 8.91044 24.673 9.62602 24.6474L9.59034 23.6481C8.38356 23.6912 7.3807 24.6078 7.23736 25.8155L8.2304 25.9333ZM5.68548 47.3766L8.2304 25.9333L7.23736 25.8155L4.69244 47.2588L5.68548 47.3766ZM6.12893 48.6058C5.79562 48.2889 5.63127 47.8333 5.68548 47.3766L4.69244 47.2588C4.60109 48.0286 4.8781 48.7963 5.43989 49.3305L6.12893 48.6058ZM7.37887 48.9866C6.92548 49.0638 6.46224 48.9226 6.12893 48.6058L5.43989 49.3305C6.00169 49.8646 6.78248 50.1025 7.54667 49.9725L7.37887 48.9866ZM8.01132 48.8802C7.79196 48.9167 7.58098 48.9522 7.37886 48.9866L7.54667 49.9725C7.74753 49.9383 7.95731 49.9029 8.17552 49.8666L8.01132 48.8802ZM7.82424 58.2407L8.59154 49.4167L7.5953 49.3301L6.828 58.154L7.82424 58.2407ZM14.4813 65.5017C10.5624 65.5017 7.48475 62.1448 7.82424 58.2407L6.828 58.154C6.43771 62.6424 9.97591 66.5017 14.4813 66.5017V65.5017ZM57.5197 65.5017H14.4813V66.5017H57.5197V65.5017ZM64.1767 58.2407C64.5162 62.1448 61.4386 65.5017 57.5197 65.5017V66.5017C62.025 66.5017 65.5632 62.6424 65.1729 58.154L64.1767 58.2407ZM63.4094 49.4169L64.1767 58.2407L65.1729 58.154L64.4057 49.3303L63.4094 49.4169ZM64.6211 48.9866C64.4193 48.9523 64.2087 48.9168 63.9897 48.8804L63.8254 49.8668C64.0433 49.9031 64.2528 49.9383 64.4533 49.9725L64.6211 48.9866ZM65.8693 48.6074C65.5361 48.9232 65.0737 49.0637 64.6211 48.9866L64.4533 49.9725C65.2161 50.1023 65.9956 49.8655 66.5572 49.3332L65.8693 48.6074ZM66.3151 47.3813C66.3677 47.8374 66.2026 48.2916 65.8693 48.6074L66.5572 49.3332C67.1188 48.801 67.3972 48.0354 67.3085 47.2667L66.3151 47.3813ZM63.8408 25.938L66.3151 47.3813L67.3085 47.2667L64.8343 25.8234L63.8408 25.938ZM62.392 24.6465C63.1329 24.6467 63.7559 25.2021 63.8408 25.938L64.8343 25.8234C64.6911 24.5829 63.6409 23.6468 62.3923 23.6465L62.392 24.6465ZM62.3917 24.6465H62.3922V23.6465H62.3917V24.6465ZM56.103 24.6465H62.3917V23.6465H56.103V24.6465ZM55.603 22.4599V24.1465H56.603V22.4599H55.603ZM52.8384 19.6953C54.3652 19.6953 55.603 20.9331 55.603 22.4599H56.603C56.603 20.3808 54.9175 18.6953 52.8384 18.6953V19.6953ZM51.0293 19.6953H52.8384V18.6953H51.0293V19.6953ZM36.0001 6.5C43.4512 6.5 49.6042 12.0613 50.5334 19.2593L51.5251 19.1313C50.5324 11.4411 43.9605 5.5 36.0001 5.5V6.5ZM20.3147 24.1438V23.1128H19.3147V24.1438H20.3147ZM25.7941 23.6438H19.8147V24.6438H25.7941V23.6438ZM25.2941 23.1128V24.1438H26.2941V23.1128H25.2941ZM19.8147 23.6128H25.7941V22.6128H19.8147V23.6128ZM11.727 58.58L12.5785 48.788L11.5823 48.7014L10.7308 58.4934L11.727 58.58ZM14.4813 61.5841C12.8599 61.5841 11.5866 60.1953 11.727 58.58L10.7308 58.4934C10.5395 60.6929 12.2734 62.5841 14.4813 62.5841V61.5841ZM57.5197 61.5841H14.4813V62.5841H57.5197V61.5841ZM60.2739 58.58C60.4144 60.1953 59.1411 61.5841 57.5197 61.5841V62.5841C59.7275 62.5841 61.4614 60.6929 61.2701 58.4934L60.2739 58.58ZM59.4224 48.7882L60.2739 58.58L61.2701 58.4934L60.4187 48.7015L59.4224 48.7882ZM43.505 47.2561C49.1122 47.7375 55.2143 48.5438 59.8463 49.2393L59.9948 48.2504C55.3511 47.5531 49.2263 46.7436 43.5906 46.2597L43.505 47.2561ZM43.0597 46.6495C42.3407 49.886 39.4523 52.3057 35.9998 52.3057V53.3057C39.931 53.3057 43.2175 50.5506 44.0359 46.8663L43.0597 46.6495ZM35.9998 52.3057C32.5473 52.3057 29.6588 49.886 28.9399 46.6495L27.9637 46.8664C28.7821 50.5506 32.0686 53.3057 35.9998 53.3057V52.3057ZM12.1546 49.2392C16.7864 48.5437 22.8879 47.7375 28.4945 47.2561L28.409 46.2598C22.7738 46.7436 16.6497 47.553 12.0062 48.2503L12.1546 49.2392ZM29.0816 42.9596C29.9859 39.9964 32.7419 37.8418 35.9998 37.8418V36.8418C32.2898 36.8418 29.1542 39.2957 28.1251 42.6678L29.0816 42.9596ZM35.9998 37.8418C39.2577 37.8418 42.0137 39.9964 42.918 42.9596L43.8744 42.6677C42.8453 39.2957 39.7098 36.8418 35.9998 36.8418V37.8418ZM62.7008 44.7032C57.7391 43.9203 50.2182 42.8779 43.4375 42.3154L43.3549 43.312C50.1018 43.8717 57.5963 44.9101 62.5449 45.691L62.7008 44.7032ZM60.1492 28.1213L62.1261 45.2544L63.1195 45.1398L61.1427 28.0067L60.1492 28.1213ZM11.419 28.564H60.6459V27.564H11.419V28.564ZM9.88234 45.2546L11.9155 28.1229L10.9225 28.0051L8.88931 45.1368L9.88234 45.2546ZM28.562 42.3154C21.7855 42.8776 14.2695 43.9191 9.30791 44.7018L9.46373 45.6896C14.4124 44.909 21.9018 43.8714 28.6447 43.312L28.562 42.3154ZM45.7061 23.1128V24.1438H46.7061V23.1128H45.7061ZM52.1855 22.6128H46.2061V23.6128H52.1855V22.6128ZM52.6855 24.1438V23.1128H51.6855V24.1438H52.6855ZM46.2061 24.6438H52.1855V23.6438H46.2061V24.6438ZM35.9998 40.7593C33.617 40.7593 31.6853 42.691 31.6853 45.0738H32.6853C32.6853 43.2432 34.1693 41.7593 35.9998 41.7593V40.7593ZM40.3142 45.0738C40.3142 42.691 38.3826 40.7593 35.9998 40.7593V41.7593C37.8303 41.7593 39.3142 43.2432 39.3142 45.0738H40.3142ZM35.9998 49.3882C38.3826 49.3882 40.3142 47.4566 40.3142 45.0738H39.3142C39.3142 46.9043 37.8303 48.3882 35.9998 48.3882V49.3882ZM31.6853 45.0738C31.6853 47.4566 33.617 49.3882 35.9998 49.3882V48.3882C34.1693 48.3882 32.6853 46.9043 32.6853 45.0738H31.6853Z" fill="white" mask="url(#path-1-inside-1_3265_19739)"/>
</svg>
