<svg width="32" height="32" viewBox="0 0 32 32" fill="none" xmlns="http://www.w3.org/2000/svg">
<path d="M28.3333 12V22.6667C28.3333 24.1333 27.1067 25.3333 25.5867 25.3333H6.39998C4.89332 25.3333 3.65332 24.1333 3.65332 22.6667V12C3.65332 10.5333 4.87998 9.33332 6.39998 9.33332H9.52002C10.3867 9.33332 11.1467 8.79999 11.4267 7.99999C11.7067 7.19999 12.4667 6.66666 13.3333 6.66666H18.6667C19.5333 6.66666 20.2933 7.19999 20.5733 7.99999C20.8533 8.79999 21.6133 9.33332 22.48 9.33332H25.6C27.1067 9.33332 28.3333 10.5333 28.3333 12Z" stroke="#222227" stroke-width="2" stroke-linecap="round" stroke-linejoin="round"/>
<path d="M16.0002 21.3332C18.6512 21.3332 20.8002 19.2439 20.8002 16.6666C20.8002 14.0892 18.6512 11.9999 16.0002 11.9999C13.3492 11.9999 11.2002 14.0892 11.2002 16.6666C11.2002 19.2439 13.3492 21.3332 16.0002 21.3332Z" stroke="#222227" stroke-width="2" stroke-linecap="round" stroke-linejoin="round"/>
<path d="M7.77344 9.33324V7.99991" stroke="#222227" stroke-width="2" stroke-linecap="round" stroke-linejoin="round"/>
</svg>
