<svg width="24" height="24" viewBox="0 0 24 24" fill="none" xmlns="http://www.w3.org/2000/svg">
<path fill-rule="evenodd" clip-rule="evenodd" d="M19.577 7.20641V7.21762L19.5778 7.26977C19.619 9.85861 19.6453 12.5802 18.6842 15.0141C17.783 17.2965 15.9564 19.4467 11.9904 20.7974C8.01371 19.4431 6.18826 17.2851 5.29279 14.9962C4.34023 12.5614 4.37529 9.83977 4.43 7.25621C4.44576 6.93531 4.45257 6.62428 4.45551 6.32434C7.45327 6.21805 9.91278 5.35931 12.004 3.60142C14.0997 5.36092 16.5807 6.21892 19.5609 6.32449L19.5632 6.41407L19.5634 6.42344C19.5704 6.69482 19.577 6.95215 19.577 7.20641ZM3.02449 7.20641C2.91647 12.2977 2.78144 19.2566 11.7473 22.1988L11.7473 22.1988C11.8283 22.2244 11.9093 22.25 11.9904 22.25C12.0714 22.25 12.1524 22.2244 12.2334 22.1988L12.2334 22.1988C21.1753 19.2645 21.0649 12.3349 20.9839 7.24736L20.9832 7.20641C20.9832 6.93118 20.9761 6.65578 20.9692 6.38743L20.9692 6.38723V6.38719C20.9626 6.13184 20.9562 5.88273 20.9562 5.64577C20.9562 5.262 20.6322 4.92941 20.2001 4.92941C17.0134 4.92941 14.5559 4.05954 12.5305 2.19188C12.2334 1.93604 11.7743 1.93604 11.4772 2.19188C9.45183 4.05954 7.02132 4.92941 3.80765 4.92941C3.40257 4.92941 3.05149 5.23642 3.05149 5.64577C3.05149 6.15745 3.05149 6.66914 3.02449 7.20641ZM16.5116 10.091C16.7862 9.81646 16.7862 9.37127 16.5116 9.09668C16.237 8.82209 15.7918 8.82209 15.5172 9.09668L10.9519 13.662L9.19908 11.9092C8.92449 11.6346 8.4793 11.6346 8.20471 11.9092C7.93013 12.1838 7.93013 12.629 8.20471 12.9036L10.9519 15.6507L16.5116 10.091Z" fill="currentColor"/>
</svg>
