<svg width="24" height="24" viewBox="0 0 24 24" fill="none" xmlns="http://www.w3.org/2000/svg">
<path d="M20.2 9.01054C21.6 10.7005 21.6 13.3005 20.2 14.9905C18.2 17.4005 15.27 18.9405 12 18.9405C8.73001 18.9405 5.81 17.4105 3.8 14.9905C2.4 13.3005 2.4 10.7005 3.8 9.01054C5.8 6.60054 8.73001 5.06055 12 5.06055C15.27 5.06055 18.19 6.59054 20.2 9.01054Z" stroke="#8E8E98" stroke-width="1.5" stroke-linecap="round" stroke-linejoin="round"/>
<path d="M20.2 9.01054C21.6 10.7005 21.6 13.3005 20.2 14.9905C18.2 17.4005 15.27 18.9405 12 18.9405C8.73001 18.9405 5.81 17.4105 3.8 14.9905C2.4 13.3005 2.4 10.7005 3.8 9.01054C5.8 6.60054 8.73001 5.06055 12 5.06055C15.27 5.06055 18.19 6.59054 20.2 9.01054Z" stroke="#8E8E98" stroke-width="1.5" stroke-linecap="round" stroke-linejoin="round"/>
<path d="M11.9999 15.0799C13.7009 15.0799 15.0799 13.701 15.0799 11.9999C15.0799 10.2989 13.7009 8.91992 11.9999 8.91992C10.2989 8.91992 8.91992 10.2989 8.91992 11.9999C8.91992 13.701 10.2989 15.0799 11.9999 15.0799Z" stroke="#8E8E98" stroke-width="1.5" stroke-linecap="round" stroke-linejoin="round"/>
</svg>
