<svg width="24" height="24" viewBox="0 0 24 24" fill="none" xmlns="http://www.w3.org/2000/svg">
<path d="M18.18 21.25H5.82001C4.12001 21.25 2.75 19.87 2.75 18.18V5.82001C2.75 4.12001 4.13001 2.75 5.82001 2.75H18.18C19.88 2.75 21.25 4.13001 21.25 5.82001V18.18C21.25 19.87 19.87 21.25 18.18 21.25Z" stroke="#E2E2E9" stroke-width="1.5" stroke-linecap="round" stroke-linejoin="round"/>
<path d="M2.75 17.4499L6.28 13.9199C6.88 13.3199 7.85999 13.3199 8.45999 13.9199L9.35999 14.8199C9.95999 15.4199 10.94 15.4199 11.54 14.8199L15.53 10.8299C16.13 10.2299 17.11 10.2299 17.71 10.8299L21.24 14.3599" stroke="#E2E2E9" stroke-width="1.5" stroke-linecap="round" stroke-linejoin="round"/>
<path d="M8.14987 5.91016C7.30987 5.91016 6.62988 6.59015 6.62988 7.43015C6.62988 8.27015 7.30987 8.95016 8.14987 8.95016C8.98987 8.95016 9.66989 8.27015 9.66989 7.43015C9.66989 6.59015 8.97987 5.91016 8.14987 5.91016Z" fill="#E2E2E9"/>
</svg>
