<svg width="13" height="13" viewBox="0 0 13 13" fill="none" xmlns="http://www.w3.org/2000/svg">
<circle cx="6.5" cy="6.5" r="6.5" fill="currentColor"/>
<path d="M7.26271 8.0814H5.77119L5.5 2.5H7.5L7.26271 8.0814ZM5.69209 9.78519C5.69209 9.57629 5.76365 9.40657 5.90678 9.27601C6.05744 9.13892 6.26083 9.07038 6.51695 9.07038C6.77307 9.07038 6.97269 9.13892 7.11582 9.27601C7.26648 9.40657 7.34181 9.57629 7.34181 9.78519C7.34181 9.99408 7.26648 10.1638 7.11582 10.2944C6.97269 10.4315 6.77307 10.5 6.51695 10.5C6.26083 10.5 6.05744 10.4315 5.90678 10.2944C5.76365 10.1638 5.69209 9.99408 5.69209 9.78519Z" fill="white"/>
</svg>
