<svg width="28" height="28" viewBox="0 0 28 28" fill="none" xmlns="http://www.w3.org/2000/svg">
<path d="M3.20837 24.793H24.7917" stroke="#5C5C65" stroke-width="1.75" stroke-linecap="round" stroke-linejoin="round"/>
<path d="M18.7951 6.80273H9.20515C7.22181 6.80273 5.61182 8.41273 5.61182 10.3961V24.7811H22.4001V10.4077C22.3885 8.41273 20.7785 6.80273 18.7951 6.80273Z" stroke="#5C5C65" stroke-width="1.75" stroke-linecap="round" stroke-linejoin="round"/>
<path d="M14 19.998C12.67 19.998 11.5967 21.0714 11.5967 22.4014V24.548C11.5967 24.688 11.7133 24.8047 11.8533 24.8047H16.1467C16.2867 24.8047 16.4033 24.688 16.4033 24.548V22.4014C16.4033 21.0714 15.33 19.998 14 19.998Z" stroke="#5C5C65" stroke-width="1.75" stroke-linecap="round" stroke-linejoin="round"/>
<path d="M17.6051 10.4062H16.4034V11.6079H17.6051V10.4062Z" stroke="#5C5C65" stroke-width="1.75" stroke-linecap="round" stroke-linejoin="round"/>
<path d="M11.6083 10.4062H10.4066V11.6079H11.6083V10.4062Z" stroke="#5C5C65" stroke-width="1.75" stroke-linecap="round" stroke-linejoin="round"/>
<path d="M17.6051 15.7969H16.4034V16.9985H17.6051V15.7969Z" stroke="#5C5C65" stroke-width="1.75" stroke-linecap="round" stroke-linejoin="round"/>
<path d="M11.6083 15.7969H10.4066V16.9985H11.6083V15.7969Z" stroke="#5C5C65" stroke-width="1.75" stroke-linecap="round" stroke-linejoin="round"/>
<path d="M17.5935 3.20898H10.3952C9.06516 3.20898 7.99182 4.28232 7.99182 5.61232V6.81398H19.9852V5.61232C19.9968 4.28232 18.9235 3.20898 17.5935 3.20898Z" stroke="#5C5C65" stroke-width="1.75" stroke-linecap="round" stroke-linejoin="round"/>
</svg>
