<svg width="24" height="24" viewBox="0 0 24 24" fill="none" xmlns="http://www.w3.org/2000/svg">
<path d="M5.75 10.041H3V13.971H5.75V10.041Z" stroke="currentColor" stroke-width="1.5" stroke-linecap="round" stroke-linejoin="round"/>
<path d="M12.57 18.8309L5.75 13.9609V10.0309L12.57 5.16087C13.18 4.73087 14 5.19087 14 5.98087V18.0109C14 18.8009 13.18 19.2709 12.57 18.8309Z" stroke="currentColor" stroke-width="1.5" stroke-linecap="round" stroke-linejoin="round"/>
<path d="M19.2383 7.76172C20.3283 8.84172 20.9983 10.3417 20.9983 12.0017C20.9983 13.6617 20.3283 15.1617 19.2383 16.2417" stroke="currentColor" stroke-width="1.5" stroke-linecap="round" stroke-linejoin="round"/>
<path d="M17.1211 9.88086C17.6611 10.4209 18.0011 11.1709 18.0011 12.0009C18.0011 12.8309 17.6611 13.5809 17.1211 14.1209" stroke="currentColor" stroke-width="1.5" stroke-linecap="round" stroke-linejoin="round"/>
<path d="M14 11C14.55 11 15 11.45 15 12C15 12.55 14.55 13 14 13" stroke="currentColor" stroke-width="1.5" stroke-linecap="round" stroke-linejoin="round"/>
</svg>
