<svg width="28" height="28" viewBox="0 0 28 28" fill="none" xmlns="http://www.w3.org/2000/svg">
<path d="M4.38666 21.1288V16.4738C4.38666 14.4438 6.03166 12.7871 8.07333 12.7871H19.9383C21.9683 12.7871 23.625 14.4321 23.625 16.4738V21.1288C23.625 23.1588 21.98 24.8154 19.9383 24.8154H8.07333C6.03166 24.8154 4.38666 23.1704 4.38666 21.1288Z" stroke="#5C5C65" stroke-width="1.75" stroke-linecap="round" stroke-linejoin="round"/>
<path d="M7.99164 12.7991V9.24076C7.99164 5.92742 10.6866 3.23242 14 3.23242C17.3133 3.23242 20.0083 5.92742 20.0083 9.24076V12.7991H7.99164Z" stroke="#5C5C65" stroke-width="1.75" stroke-linecap="round" stroke-linejoin="round"/>
<path d="M14 21.2112V18.2012" stroke="#5C5C65" stroke-width="1.75" stroke-linecap="round" stroke-linejoin="round"/>
<path d="M13.9999 18.8076C14.6636 18.8076 15.2016 18.2696 15.2016 17.606C15.2016 16.9423 14.6636 16.4043 13.9999 16.4043C13.3363 16.4043 12.7983 16.9423 12.7983 17.606C12.7983 18.2696 13.3363 18.8076 13.9999 18.8076Z" fill="#5C5C65" stroke="#5C5C65" stroke-width="1.75" stroke-linecap="round" stroke-linejoin="round"/>
</svg>
