<svg width="16" height="16" viewBox="0 0 16 16" fill="none" xmlns="http://www.w3.org/2000/svg">
<path d="M10.7399 1.83398H5.25993C4.87993 1.83398 4.57324 2.14065 4.57324 2.52065V5.26065H11.4266V2.52065C11.4266 2.14065 11.1199 1.83398 10.7399 1.83398Z" stroke="currentColor" stroke-linecap="round" stroke-linejoin="round"/>
<path d="M2.33301 6.8131C2.33301 6.22924 2.80248 5.75977 3.38633 5.75977H12.613C13.1969 5.75977 13.6663 6.22924 13.6663 6.8131V9.8731C13.6663 10.457 13.1969 10.9264 12.613 10.9264H11.4264V11.9264H12.613C13.7492 11.9264 14.6663 11.0092 14.6663 9.8731V6.8131C14.6663 5.67696 13.7492 4.75977 12.613 4.75977H3.38633C2.25019 4.75977 1.33301 5.67696 1.33301 6.8131V9.8731C1.33301 11.0092 2.25019 11.9264 3.38633 11.9264H4.573V10.9264H3.38633C2.80248 10.9264 2.33301 10.457 2.33301 9.8731V6.8131Z" fill="currentColor"/>
<path d="M11.4266 8H4.57324V13.2467C4.57324 13.7533 4.98658 14.1667 5.49325 14.1667H10.5066C11.0133 14.1667 11.4266 13.7533 11.4266 13.2467V8Z" stroke="currentColor" stroke-linecap="round" stroke-linejoin="round"/>
<path d="M6.62646 12.1133H7.31313" stroke="currentColor" stroke-linecap="round" stroke-linejoin="round"/>
<path d="M6.62646 10.0527H9.37313" stroke="currentColor" stroke-linecap="round" stroke-linejoin="round"/>
</svg>
