<svg width="24" height="24" viewBox="0 0 24 24" fill="none" xmlns="http://www.w3.org/2000/svg">
<mask id="path-1-inside-1_3320_99" fill="white">
<path fill-rule="evenodd" clip-rule="evenodd" d="M12.1503 2.39449H17.8497C18.2089 2.39449 18.5 2.68563 18.5 3.04476V4.17575H18.8989C20.3355 4.17575 21.5 5.34028 21.5 6.77682V20.9722C21.5 21.322 21.2165 21.6055 20.8667 21.6055H3.13333C2.78355 21.6055 2.5 21.322 2.5 20.9722V17.2926C2.5 16.9428 2.78355 16.6592 3.13333 16.6592H14.5333C14.8831 16.6592 15.1667 16.3757 15.1667 16.0259V11.9652C15.1667 10.7852 14.2101 9.82864 13.0301 9.82864H12.7362C11.7185 9.82864 10.8936 10.6536 10.8936 11.6713C10.8936 11.9544 10.664 12.184 10.3808 12.184H8.68072L8.68071 13.207C8.68071 13.5662 8.38958 13.8573 8.03044 13.8573H5.13419C4.77506 13.8573 4.48392 13.5662 4.48392 13.207L4.48393 12.184H3.13333C2.78355 12.184 2.5 11.9005 2.5 11.5507V6.77682C2.5 5.34028 3.66454 4.17575 5.10107 4.17575H11.5V3.04476C11.5 2.68563 11.7911 2.39449 12.1503 2.39449Z"/>
</mask>
<path d="M18.5 4.17575H17V5.67575H18.5V4.17575ZM8.68072 12.184V10.684H7.18073L7.18072 12.184L8.68072 12.184ZM8.68071 13.207L10.1807 13.207V13.207L8.68071 13.207ZM4.48392 13.207L5.98392 13.207L4.48392 13.207ZM4.48393 12.184L5.98393 12.184L5.98394 10.684H4.48393V12.184ZM11.5 4.17575V5.67575H13V4.17575H11.5ZM17.8497 0.894493H12.1503V3.89449H17.8497V0.894493ZM20 3.04476C20 1.8572 19.0373 0.894493 17.8497 0.894493V3.89449C17.3804 3.89449 17 3.51406 17 3.04476H20ZM20 4.17575V3.04476H17V4.17575H20ZM18.8989 2.67575H18.5V5.67575H18.8989V2.67575ZM23 6.77682C23 4.51186 21.1639 2.67575 18.8989 2.67575V5.67575C19.507 5.67575 20 6.16871 20 6.77682H23ZM23 20.9722V6.77682H20V20.9722H23ZM20.8667 23.1055C22.0449 23.1055 23 22.1504 23 20.9722H20C20 20.4935 20.388 20.1055 20.8667 20.1055V23.1055ZM3.13333 23.1055H20.8667V20.1055H3.13333V23.1055ZM1 20.9722C1 22.1504 1.95512 23.1055 3.13333 23.1055V20.1055C3.61198 20.1055 4 20.4935 4 20.9722H1ZM1 17.2926V20.9722H4V17.2926H1ZM3.13333 15.1592C1.95513 15.1592 1 16.1143 1 17.2926H4C4 17.7712 3.61198 18.1592 3.13333 18.1592V15.1592ZM14.5333 15.1592H3.13333V18.1592H14.5333V15.1592ZM13.6667 16.0259C13.6667 15.5472 14.0547 15.1592 14.5333 15.1592V18.1592C15.7116 18.1592 16.6667 17.2041 16.6667 16.0259H13.6667ZM13.6667 11.9652V16.0259H16.6667V11.9652H13.6667ZM13.0301 11.3286C13.3817 11.3286 13.6667 11.6136 13.6667 11.9652H16.6667C16.6667 9.95678 15.0385 8.32864 13.0301 8.32864V11.3286ZM12.7362 11.3286H13.0301V8.32864H12.7362V11.3286ZM12.3936 11.6713C12.3936 11.482 12.547 11.3286 12.7362 11.3286V8.32864C10.8901 8.32864 9.39358 9.82518 9.39358 11.6713H12.3936ZM10.3808 13.684C11.4924 13.684 12.3936 12.7829 12.3936 11.6713H9.39358C9.39358 11.126 9.83559 10.684 10.3808 10.684V13.684ZM8.68072 13.684H10.3808V10.684H8.68072V13.684ZM7.18072 12.184L7.18071 13.207L10.1807 13.207L10.1807 12.184L7.18072 12.184ZM7.18071 13.207C7.18072 12.7377 7.56115 12.3573 8.03044 12.3573V15.3573C9.218 15.3573 10.1807 14.3946 10.1807 13.207L7.18071 13.207ZM8.03044 12.3573H5.13419V15.3573H8.03044V12.3573ZM5.13419 12.3573C5.60349 12.3573 5.98393 12.7377 5.98392 13.207L2.98392 13.207C2.98391 14.3946 3.94662 15.3573 5.13419 15.3573V12.3573ZM5.98392 13.207L5.98393 12.184L2.98393 12.184L2.98392 13.207L5.98392 13.207ZM3.13333 13.684H4.48393V10.684H3.13333V13.684ZM1 11.5507C1 12.7289 1.95513 13.684 3.13333 13.684V10.684C3.61198 10.684 4 11.072 4 11.5507H1ZM1 6.77682V11.5507H4V6.77682H1ZM5.10107 2.67575C2.83611 2.67575 1 4.51186 1 6.77682H4C4 6.16871 4.49297 5.67575 5.10107 5.67575V2.67575ZM11.5 2.67575H5.10107V5.67575H11.5V2.67575ZM10 3.04476V4.17575H13V3.04476H10ZM12.1503 0.894493C10.9627 0.894493 10 1.8572 10 3.04476H13C13 3.51406 12.6196 3.89449 12.1503 3.89449V0.894493Z" fill="#222227" mask="url(#path-1-inside-1_3320_99)"/>
</svg>
