<svg width="24" height="24" viewBox="0 0 24 24" fill="none" xmlns="http://www.w3.org/2000/svg">
<mask id="mask0_4353_3107" style="mask-type:alpha" maskUnits="userSpaceOnUse" x="1" y="1" width="22" height="22">
<rect x="1.73328" y="1.73328" width="20.5333" height="20.5333" fill="currentColor"/>
</mask>
<g mask="url(#mask0_4353_3107)">
<path d="M12.0706 13.6404L11.9999 13.5697L11.9292 13.6404L9.91862 15.651L9.86623 15.7034L9.9011 15.7688C10.0101 15.9732 10.0852 16.1913 10.1261 16.4235C10.1679 16.6603 10.1888 16.8969 10.1888 17.1334C10.1888 18.0478 9.86437 18.828 9.21279 19.4796C8.56121 20.1312 7.78094 20.4556 6.86656 20.4556C5.95218 20.4556 5.17191 20.1312 4.52032 19.4796C3.86874 18.828 3.54434 18.0478 3.54434 17.1334C3.54434 16.219 3.86874 15.4387 4.52032 14.7871C5.17191 14.1356 5.95218 13.8112 6.86656 13.8112C7.10305 13.8112 7.33964 13.832 7.5764 13.8738C7.8086 13.9148 8.02671 13.9898 8.23117 14.0988L8.29654 14.1337L8.34894 14.0813L10.3595 12.0708L10.4302 12L10.3595 11.9293L8.34894 9.91877L8.29654 9.86638L8.23117 9.90125C8.02671 10.0103 7.8086 10.0853 7.5764 10.1263C7.33964 10.1681 7.10305 10.1889 6.86656 10.1889C5.95218 10.1889 5.17191 9.86452 4.52032 9.21294C3.86874 8.56136 3.54434 7.78109 3.54434 6.86671C3.54434 5.95233 3.86874 5.17205 4.52032 4.52047C5.17191 3.86889 5.95218 3.54448 6.86656 3.54448C7.78094 3.54448 8.56121 3.86889 9.21279 4.52047C9.86437 5.17205 10.1888 5.95233 10.1888 6.86671C10.1888 7.1032 10.1679 7.33979 10.1261 7.57655C10.0852 7.80875 10.0101 8.02686 9.9011 8.23132L9.86623 8.29669L9.91862 8.34908L20.1425 18.573C20.3671 18.7976 20.4768 19.0577 20.4768 19.3578C20.4768 19.658 20.3671 19.9181 20.1425 20.1427C19.9179 20.3673 19.6578 20.477 19.3577 20.477C19.0575 20.477 18.7974 20.3673 18.5728 20.1427L12.0706 13.6404ZM12.3809 12.3816L12.3814 12.3811C12.4811 12.2807 12.5277 12.1503 12.5277 12C12.5277 11.8498 12.4811 11.7194 12.3814 11.619L12.3809 11.6185C12.2805 11.5188 12.1501 11.4723 11.9999 11.4723C11.8496 11.4723 11.7193 11.5188 11.6189 11.6185L11.6184 11.619C11.5187 11.7194 11.4721 11.8498 11.4721 12C11.4721 12.1503 11.5187 12.2807 11.6184 12.3811L11.6189 12.3816C11.7193 12.4812 11.8496 12.5278 11.9999 12.5278C12.1501 12.5278 12.2805 12.4812 12.3809 12.3816ZM14.5666 11.0031L12.9969 9.43337L18.5728 3.85742C18.7974 3.63282 19.0575 3.5231 19.3577 3.5231C19.6578 3.5231 19.9179 3.63282 20.1425 3.85742C20.3671 4.08202 20.4768 4.34213 20.4768 4.64226C20.4768 4.94239 20.3671 5.20251 20.1425 5.42711L14.5666 11.0031ZM6.86656 8.67782C7.36385 8.67782 7.79191 8.49944 8.14531 8.14546C8.49929 7.79206 8.67767 7.364 8.67767 6.86671C8.67767 6.36942 8.49929 5.94136 8.14531 5.58795C7.79191 5.23397 7.36385 5.0556 6.86656 5.0556C6.36927 5.0556 5.94121 5.23397 5.5878 5.58795C5.23382 5.94136 5.05545 6.36942 5.05545 6.86671C5.05545 7.364 5.23382 7.79206 5.5878 8.14546C5.94121 8.49944 6.36927 8.67782 6.86656 8.67782ZM6.86656 18.9445C7.36382 18.9445 7.79188 18.7664 8.14531 18.413C8.49928 18.059 8.67767 17.6307 8.67767 17.1334C8.67767 16.6361 8.49928 16.2077 8.14531 15.8538C7.79188 15.5003 7.36382 15.3223 6.86656 15.3223C6.3693 15.3223 5.94123 15.5003 5.5878 15.8538C5.23384 16.2077 5.05545 16.6361 5.05545 17.1334C5.05545 17.6307 5.23384 18.059 5.5878 18.413C5.94123 18.7664 6.3693 18.9445 6.86656 18.9445Z" fill="black" stroke="white" stroke-width="0.2"/>
</g>
</svg>
