<svg width="72" height="72" viewBox="0 0 72 72" fill="none" xmlns="http://www.w3.org/2000/svg">
<path d="M11.3394 31.9219V53.9119C11.3394 57.3319 14.0994 60.0919 17.5194 60.0919H54.5094C57.9293 60.0919 60.6894 57.3319 60.6894 53.9119V32.4019" stroke="black" stroke-width="3" stroke-linecap="round" stroke-linejoin="round"/>
<path d="M26.7597 26.4321C26.7597 30.4521 22.6197 33.6921 17.5197 33.6921C15.7197 33.6921 14.0697 33.3021 12.6597 32.6121C9.56973 31.1121 8.03972 27.5421 8.75972 24.1821L10.4997 15.9621C10.9797 13.6221 13.5597 11.9121 16.5897 11.9121H55.4697C58.4697 11.9121 61.0497 13.6221 61.5597 15.9621L63.2997 24.0921C63.2997 24.1221 63.3297 24.1521 63.2997 24.1521C64.0497 27.5121 62.5197 31.0821 59.3997 32.5821C57.9897 33.2721 56.3097 33.6621 54.5397 33.6621C49.4097 33.6621 45.2997 30.4221 45.2997 26.4021" stroke="black" stroke-width="3" stroke-linecap="round" stroke-linejoin="round"/>
<path d="M45.2398 26.4316C45.2398 30.4516 41.0998 33.6916 35.9998 33.6916C30.8698 33.6916 26.7598 30.4516 26.7598 26.4316" stroke="black" stroke-width="3" stroke-linecap="round" stroke-linejoin="round"/>
<path d="M26.7598 26.4314V11.9414" stroke="black" stroke-width="3" stroke-linecap="round" stroke-linejoin="round"/>
<path d="M45.2395 26.4314V11.9414" stroke="black" stroke-width="3" stroke-linecap="round" stroke-linejoin="round"/>
<path d="M42.1498 47.7305H29.8198V60.0605H42.1498V47.7305Z" stroke="black" stroke-width="3" stroke-linecap="round" stroke-linejoin="round"/>
</svg>
