<svg width="24" height="24" viewBox="0 0 24 24" fill="none" xmlns="http://www.w3.org/2000/svg">
<path d="M3.7793 10.64V17.97C3.7793 19.11 4.6993 20.03 5.8393 20.03H18.1693C19.3093 20.03 20.2293 19.11 20.2293 17.97V10.8" stroke="#526EFF" stroke-width="1.5" stroke-linecap="round" stroke-linejoin="round"/>
<path d="M8.91991 8.80997C8.91991 10.15 7.53991 11.23 5.83991 11.23C5.23991 11.23 4.68991 11.1 4.21991 10.87C3.18991 10.37 2.67991 9.17997 2.91991 8.05997L3.49991 5.31997C3.65991 4.53997 4.51991 3.96997 5.52991 3.96997H18.4899C19.4899 3.96997 20.3499 4.53997 20.5199 5.31997L21.0999 8.02997C21.0999 8.03997 21.1099 8.04997 21.0999 8.04997C21.3499 9.16997 20.8399 10.36 19.7999 10.86C19.3299 11.09 18.7699 11.22 18.1799 11.22C16.4699 11.22 15.0999 10.14 15.0999 8.79997" stroke="#526EFF" stroke-width="1.5" stroke-linecap="round" stroke-linejoin="round"/>
<path d="M15.0799 8.80994C15.0799 10.1499 13.6999 11.2299 11.9999 11.2299C10.2899 11.2299 8.91992 10.1499 8.91992 8.80994" stroke="#526EFF" stroke-width="1.5" stroke-linecap="round" stroke-linejoin="round"/>
<path d="M8.91992 8.80998V3.97998" stroke="#526EFF" stroke-width="1.5" stroke-linecap="round" stroke-linejoin="round"/>
<path d="M15.0801 8.80998V3.97998" stroke="#526EFF" stroke-width="1.5" stroke-linecap="round" stroke-linejoin="round"/>
<path d="M14.0495 15.9099H9.93945V20.0199H14.0495V15.9099Z" stroke="#526EFF" stroke-width="1.5" stroke-linecap="round" stroke-linejoin="round"/>
</svg>
