<svg width="84" height="22" viewBox="0 0 84 22" fill="none" xmlns="http://www.w3.org/2000/svg">
<path d="M33.0308 18.2499L28.7183 8.0779H32.1725L34.3497 14.3988L36.5269 8.0779H39.9183L35.6058 18.229L33.0308 18.2499Z" fill="currentColor"/>
<path d="M42.6839 6.67559C42.1815 6.67559 41.7628 6.50815 41.4279 6.17327C41.1069 5.82443 40.9464 5.40583 40.9464 4.91746C40.9464 4.42909 41.1069 4.01747 41.4279 3.68259C41.7628 3.33375 42.1815 3.15934 42.6839 3.15934C43.1864 3.15934 43.5981 3.33375 43.9191 3.68259C44.2401 4.01747 44.4006 4.42909 44.4006 4.91746C44.4006 5.40583 44.2401 5.82443 43.9191 6.17327C43.5981 6.50815 43.1864 6.67559 42.6839 6.67559ZM41.072 18.2499V8.0779H44.275V18.2499H41.072Z" fill="currentColor"/>
<path d="M46.5305 18.2499V8.0779H49.7335V8.85231C50.4034 8.19651 51.2757 7.8686 52.3503 7.8686C53.3133 7.8686 54.067 8.1686 54.6113 8.7686L52.7062 11.1756C52.5667 11.0221 52.3922 10.9035 52.1829 10.8197C51.9875 10.736 51.7502 10.6942 51.4711 10.6942C50.9407 10.6942 50.5151 10.8616 50.1941 11.1965C49.887 11.5174 49.7335 12.0058 49.7335 12.6616V18.2499H46.5305Z" fill="currentColor"/>
<path d="M60.0979 18.4801C59.0373 18.4801 58.0812 18.2499 57.2299 17.7895C56.3925 17.329 55.7296 16.7011 55.2411 15.9057C54.7526 15.0965 54.5084 14.1825 54.5084 13.1639C54.5084 12.1593 54.7526 11.2593 55.2411 10.4639C55.7435 9.65463 56.4135 9.01976 57.2508 8.55929C58.1022 8.08488 59.0652 7.84767 60.1398 7.84767C61.7309 7.84767 63.0497 8.39185 64.0965 9.48022L62.0449 11.5314C61.5704 11.0151 60.9353 10.757 60.1398 10.757C59.456 10.757 58.8907 10.9802 58.4441 11.4267C57.9975 11.8593 57.7742 12.4314 57.7742 13.143C57.7742 13.8686 57.9975 14.4546 58.4441 14.9011C58.8907 15.3476 59.456 15.5709 60.1398 15.5709C60.9632 15.5709 61.6192 15.2918 62.1077 14.7337L64.1383 16.7848C63.0497 17.915 61.7029 18.4801 60.0979 18.4801Z" fill="currentColor"/>
<path d="M65.5638 18.2499V3.05469H68.7668V18.2499H65.5638Z" fill="currentColor"/>
<path d="M76.0467 18.4801C74.9441 18.4801 73.9602 18.2569 73.0949 17.8104C72.2436 17.3499 71.5737 16.722 71.0852 15.9267C70.5967 15.1174 70.3525 14.1965 70.3525 13.1639C70.3525 12.1453 70.5897 11.2383 71.0643 10.443C71.5527 9.64766 72.2087 9.01976 73.0321 8.55929C73.8555 8.08488 74.7836 7.84767 75.8164 7.84767C76.8073 7.84767 77.6866 8.07093 78.4542 8.51743C79.2357 8.94999 79.8428 9.54998 80.2755 10.3174C80.7221 11.0709 80.9454 11.943 80.9454 12.9337C80.9454 13.3104 80.8966 13.736 80.7989 14.2104L73.5136 14.2313C73.6811 14.8034 73.9811 15.243 74.4138 15.5499C74.8464 15.8569 75.3838 16.0104 76.0258 16.0104C77.0446 16.0104 77.8541 15.6616 78.4542 14.9639L80.2127 16.722C79.7103 17.3081 79.1032 17.7476 78.3914 18.0406C77.6796 18.3336 76.898 18.4801 76.0467 18.4801ZM75.8373 10.2965C75.2512 10.2965 74.7557 10.45 74.351 10.757C73.9463 11.0639 73.6671 11.4895 73.5136 12.0337L77.9517 12.0128C77.6866 10.8686 76.9818 10.2965 75.8373 10.2965Z" fill="currentColor"/>
<path fill-rule="evenodd" clip-rule="evenodd" d="M6.10965 3.05469H3.05444V10.6911H6.10965C6.10965 8.16058 8.16145 6.10923 10.6925 6.10923C13.2235 6.10923 15.2753 8.16058 15.2753 10.6911H18.3305C18.3305 6.4736 14.9108 3.05469 10.6925 3.05469C8.97299 3.05469 7.38621 3.62275 6.10965 4.5814V3.05469Z" fill="currentColor"/>
<path fill-rule="evenodd" clip-rule="evenodd" d="M21.3857 18.3271H24.4409V10.6908H21.3857C21.3857 13.2213 19.3339 15.2726 16.8029 15.2726C14.2719 15.2726 12.2201 13.2213 12.2201 10.6908H9.16486C9.16486 14.9082 12.5845 18.3271 16.8029 18.3271C18.5224 18.3271 20.1091 17.7591 21.3857 16.8004V18.3271Z" fill="currentColor"/>
</svg>
