<svg width="172" height="20" viewBox="0 0 172 20" fill="none" xmlns="http://www.w3.org/2000/svg">
<path d="M32.9652 15.5961L28.5559 5.15575H32.0876L34.3136 11.6434L36.5397 5.15575H40.0072L35.5979 15.5746L32.9652 15.5961Z" fill="black"/>
<path d="M42.8349 3.71643C42.3212 3.71643 41.8931 3.54457 41.5506 3.20086C41.2224 2.84282 41.0583 2.41317 41.0583 1.91192C41.0583 1.41067 41.2224 0.988184 41.5506 0.644468C41.8931 0.28643 42.3212 0.107411 42.8349 0.107411C43.3486 0.107411 43.7695 0.28643 44.0977 0.644468C44.4259 0.988184 44.59 1.41067 44.59 1.91192C44.59 2.41317 44.4259 2.84282 44.0977 3.20086C43.7695 3.54457 43.3486 3.71643 42.8349 3.71643ZM41.1867 15.5961V5.15575H44.4616V15.5961H41.1867Z" fill="black"/>
<path d="M46.7677 15.5961V5.15575H50.0426V5.95059C50.7275 5.27748 51.6193 4.94092 52.7181 4.94092C53.7027 4.94092 54.4732 5.24884 55.0297 5.86466L53.082 8.33512C52.9393 8.17759 52.7609 8.05585 52.5469 7.96992C52.3471 7.88399 52.1045 7.84103 51.8191 7.84103C51.2769 7.84103 50.8416 8.01289 50.5135 8.35661C50.1995 8.686 50.0426 9.18725 50.0426 9.86036V15.5961H46.7677Z" fill="black"/>
<path d="M60.6395 15.8324C59.555 15.8324 58.5775 15.5961 57.7071 15.1235C56.8509 14.6509 56.1731 14.0064 55.6737 13.1901C55.1743 12.3595 54.9246 11.4214 54.9246 10.3759C54.9246 9.34479 55.1743 8.42105 55.6737 7.60473C56.1874 6.77408 56.8723 6.12245 57.7285 5.64984C58.5989 5.16291 59.5835 4.91944 60.6823 4.91944C62.309 4.91944 63.6575 5.47798 64.7277 6.59506L62.6301 8.70032C62.1449 8.17043 61.4957 7.90548 60.6823 7.90548C59.9831 7.90548 59.4052 8.13462 58.9486 8.59291C58.4919 9.03688 58.2636 9.62406 58.2636 10.3545C58.2636 11.0992 58.4919 11.7007 58.9486 12.159C59.4052 12.6173 59.9831 12.8464 60.6823 12.8464C61.5242 12.8464 62.1949 12.56 62.6943 11.9871L64.7705 14.0924C63.6575 15.2524 62.2805 15.8324 60.6395 15.8324Z" fill="black"/>
<path d="M66.228 15.5961V0H69.5028V15.5961H66.228Z" fill="black"/>
<path d="M76.946 15.8324C75.8187 15.8324 74.8127 15.6033 73.928 15.145C73.0575 14.6724 72.3726 14.0279 71.8732 13.2116C71.3737 12.381 71.124 11.4357 71.124 10.3759C71.124 9.33047 71.3666 8.39957 71.8518 7.58324C72.3512 6.76692 73.0219 6.12245 73.8638 5.64984C74.7057 5.16291 75.6546 4.91944 76.7105 4.91944C77.7237 4.91944 78.6226 5.14859 79.4075 5.60687C80.2066 6.05084 80.8273 6.66667 81.2696 7.45435C81.7263 8.22771 81.9546 9.12281 81.9546 10.1396C81.9546 10.5263 81.9046 10.9631 81.8047 11.4501L74.3561 11.4715C74.5273 12.0587 74.8341 12.5098 75.2764 12.8249C75.7188 13.14 76.2682 13.2975 76.9246 13.2975C77.9662 13.2975 78.7939 12.9395 79.4075 12.2234L81.2054 14.0279C80.6917 14.6294 80.071 15.0806 79.3432 15.3813C78.6155 15.6821 77.8164 15.8324 76.946 15.8324ZM76.7319 7.43287C76.1326 7.43287 75.626 7.5904 75.2122 7.90548C74.7984 8.22055 74.513 8.65736 74.3561 9.2159L78.8938 9.19441C78.6226 8.02005 77.902 7.43287 76.7319 7.43287Z" fill="black"/>
<path d="M87.6113 20V5.15575H90.8861V5.88614C91.2429 5.58539 91.6496 5.35625 92.1062 5.19871C92.5771 5.02685 93.0765 4.94092 93.6045 4.94092C94.5891 4.94092 95.4595 5.17723 96.2158 5.64984C96.9863 6.12245 97.5857 6.77408 98.0137 7.60473C98.4561 8.42105 98.6773 9.34479 98.6773 10.3759C98.6773 11.4214 98.4561 12.3523 98.0137 13.1686C97.5857 13.985 96.9863 14.6294 96.2158 15.102C95.4595 15.5747 94.5891 15.811 93.6045 15.811C93.0622 15.811 92.5557 15.7322 92.0848 15.5746C91.6139 15.4028 91.2001 15.1736 90.8433 14.8872V20H87.6113ZM93.0266 12.8464C93.7115 12.8464 94.268 12.6173 94.6961 12.159C95.1384 11.6864 95.3596 11.092 95.3596 10.3759C95.3596 9.64554 95.1384 9.0512 94.6961 8.59291C94.268 8.13462 93.7115 7.90548 93.0266 7.90548C92.3274 7.90548 91.7637 8.13462 91.3356 8.59291C90.9075 9.0512 90.6935 9.64554 90.6935 10.3759C90.6935 11.1063 90.9075 11.7007 91.3356 12.159C91.7637 12.6173 92.3274 12.8464 93.0266 12.8464Z" fill="black"/>
<path d="M104.686 15.811C103.73 15.811 102.874 15.5747 102.117 15.102C101.375 14.6294 100.783 13.985 100.341 13.1686C99.9129 12.3523 99.6988 11.4214 99.6988 10.3759C99.6988 9.34479 99.9129 8.42105 100.341 7.60473C100.783 6.77408 101.375 6.12245 102.117 5.64984C102.874 5.17723 103.73 4.94092 104.686 4.94092C105.257 4.94092 105.785 5.04117 106.27 5.24167C106.769 5.42786 107.197 5.68564 107.554 6.01504V5.15575H110.765V15.5961H107.554V14.7368C107.197 15.0806 106.769 15.3455 106.27 15.5317C105.785 15.7179 105.257 15.811 104.686 15.811ZM105.35 12.8464C106.049 12.8464 106.612 12.6173 107.04 12.159C107.469 11.7007 107.683 11.1063 107.683 10.3759C107.683 9.64554 107.469 9.0512 107.04 8.59291C106.612 8.13462 106.056 7.90548 105.371 7.90548C104.686 7.90548 104.122 8.14178 103.68 8.61439C103.238 9.07268 103.016 9.65986 103.016 10.3759C103.016 11.1063 103.231 11.7007 103.659 12.159C104.101 12.6173 104.665 12.8464 105.35 12.8464Z" fill="black"/>
<path d="M113.071 15.5961V5.15575H116.345V5.95059C117.03 5.27748 117.922 4.94092 119.021 4.94092C120.006 4.94092 120.776 5.24884 121.333 5.86466L119.385 8.33512C119.242 8.17759 119.064 8.05585 118.85 7.96992C118.65 7.88399 118.407 7.84103 118.122 7.84103C117.58 7.84103 117.145 8.01289 116.816 8.35661C116.502 8.686 116.345 9.18725 116.345 9.86036V15.5961H113.071Z" fill="black"/>
<path d="M123.807 15.5961V7.94844H121.453V5.15575H123.807V0.837808H127.082V5.15575H129.437V7.94844H127.082V15.5961H123.807Z" fill="black"/>
<path d="M130.88 15.5961V5.15575H134.154V5.99355C134.925 5.2918 135.895 4.94092 137.065 4.94092C137.822 4.94092 138.499 5.1271 139.099 5.49946C139.698 5.8575 140.169 6.33727 140.511 6.93877C140.854 7.54028 141.025 8.19907 141.025 8.91514V15.5961H137.75V9.64554C137.75 9.10132 137.579 8.66452 137.237 8.33512C136.908 7.99141 136.487 7.81955 135.974 7.81955C135.446 7.81955 135.011 7.99141 134.668 8.33512C134.326 8.66452 134.154 9.10132 134.154 9.64554V15.5961H130.88Z" fill="black"/>
<path d="M148.265 15.8324C147.138 15.8324 146.132 15.6033 145.247 15.145C144.377 14.6724 143.692 14.0279 143.193 13.2116C142.693 12.381 142.444 11.4357 142.444 10.3759C142.444 9.33047 142.686 8.39957 143.171 7.58324C143.671 6.76692 144.341 6.12245 145.183 5.64984C146.025 5.16291 146.974 4.91944 148.03 4.91944C149.043 4.91944 149.942 5.14859 150.727 5.60687C151.526 6.05084 152.147 6.66667 152.589 7.45435C153.046 8.22771 153.274 9.12281 153.274 10.1396C153.274 10.5263 153.224 10.9631 153.124 11.4501L145.676 11.4715C145.847 12.0587 146.154 12.5098 146.596 12.8249C147.038 13.14 147.588 13.2975 148.244 13.2975C149.286 13.2975 150.113 12.9395 150.727 12.2234L152.525 14.0279C152.011 14.6294 151.39 15.0806 150.663 15.3813C149.935 15.6821 149.136 15.8324 148.265 15.8324ZM148.051 7.43287C147.452 7.43287 146.946 7.5904 146.532 7.90548C146.118 8.22055 145.833 8.65736 145.676 9.2159L150.213 9.19441C149.942 8.02005 149.222 7.43287 148.051 7.43287Z" fill="black"/>
<path d="M154.855 15.5961V5.15575H158.13V5.95059C158.815 5.27748 159.706 4.94092 160.805 4.94092C161.79 4.94092 162.56 5.24884 163.117 5.86466L161.169 8.33512C161.026 8.17759 160.848 8.05585 160.634 7.96992C160.434 7.88399 160.192 7.84103 159.906 7.84103C159.364 7.84103 158.929 8.01289 158.601 8.35661C158.287 8.686 158.13 9.18725 158.13 9.86036V15.5961H154.855Z" fill="black"/>
<path d="M167.548 15.8539C166.62 15.8539 165.728 15.6821 164.872 15.3383C164.016 14.9946 163.324 14.522 162.796 13.9205L164.658 12.0301C165.372 12.8178 166.292 13.2116 167.419 13.2116C168.218 13.2116 168.618 12.9968 168.618 12.5671C168.618 12.3093 168.49 12.116 168.233 11.9871C167.99 11.8439 167.676 11.7222 167.291 11.6219C166.906 11.5217 166.499 11.4071 166.071 11.2782C165.643 11.135 165.236 10.9488 164.851 10.7197C164.466 10.4905 164.152 10.1754 163.909 9.77444C163.667 9.37343 163.545 8.8507 163.545 8.20623C163.545 7.21804 163.916 6.41604 164.658 5.80021C165.415 5.17007 166.435 4.85499 167.719 4.85499C168.604 4.85499 169.417 5.01253 170.159 5.3276C170.915 5.62836 171.529 6.07948 172 6.68099L170.138 8.57143C169.81 8.18475 169.439 7.91264 169.025 7.7551C168.625 7.59757 168.233 7.5188 167.847 7.5188C167.105 7.5188 166.734 7.72646 166.734 8.14178C166.734 8.37093 166.856 8.54994 167.098 8.67884C167.341 8.79341 167.655 8.90798 168.04 9.02256C168.425 9.12281 168.832 9.24454 169.26 9.38776C169.688 9.51665 170.088 9.70283 170.459 9.94629C170.844 10.1898 171.158 10.5192 171.401 10.9345C171.657 11.3498 171.786 11.8797 171.786 12.5242C171.786 13.5553 171.401 14.3716 170.63 14.9731C169.874 15.5603 168.846 15.8539 167.548 15.8539Z" fill="black"/>
<path fill-rule="evenodd" clip-rule="evenodd" d="M4.98062 1.6665H1.66016V9.99984H4.98062C4.98062 9.9991 4.98062 9.99836 4.98062 9.99763C4.98181 7.23722 7.21129 4.99984 9.96131 4.99984C12.7121 4.99984 14.942 7.23841 14.942 9.99984H18.2625C18.2625 5.39746 14.5459 1.6665 9.96131 1.6665C8.09255 1.6665 6.36801 2.28641 4.98062 3.33256V1.6665Z" fill="#526EFF"/>
<path fill-rule="evenodd" clip-rule="evenodd" d="M21.5831 18.333H24.9036V9.99967H21.5831C21.5831 12.7611 19.3532 14.9997 16.6024 14.9997C13.8516 14.9997 11.6217 12.7611 11.6217 9.99967H8.30125C8.30125 14.602 12.0178 18.333 16.6024 18.333C18.4712 18.333 20.1957 17.7131 21.5831 16.667V18.333Z" fill="#526EFF"/>
</svg>
