<svg width="24" height="24" viewBox="0 0 24 24" fill="none" xmlns="http://www.w3.org/2000/svg">
<path fill-rule="evenodd" clip-rule="evenodd" d="M4.29 4.57001C3.91355 4.57001 3.5 4.92228 3.5 5.50001C3.5 6.07554 3.91042 6.42733 4.28571 6.42999H16.3431C16.0482 5.32489 15.1199 4.57001 14.11 4.57001H11.48H8.98001H4.29ZM17.8752 6.42999C17.5499 4.56282 16.0332 3.07001 14.11 3.07001H11.48H8.98001H4.29C2.96645 3.07001 2 4.21774 2 5.50001C2 5.58493 2.00424 5.66926 2.01254 5.75271C2.0043 5.79722 2 5.84311 2 5.89001V7.17999V10.86V17.2C2 19.2658 3.67743 20.93 5.73 20.93H18.26C20.3259 20.93 21.99 19.2526 21.99 17.2V10.1722C22.0013 8.10628 20.3242 6.42999 18.27 6.42999H17.8752ZM17.1852 7.92999C17.1868 7.93 17.1884 7.93001 17.19 7.93001C17.1916 7.93001 17.1932 7.93 17.1948 7.92999H18.27C19.495 7.92999 20.4975 8.93244 20.49 10.1654L20.49 10.17V17.2C20.49 18.4274 19.4941 19.43 18.26 19.43H5.73C4.50257 19.43 3.5 18.4341 3.5 17.2V10.86V7.92999H4.28164C4.28443 7.93 4.28721 7.93001 4.29 7.93001H11.48C11.4816 7.93001 11.4832 7.93 11.4848 7.92999H17.1852Z" fill="currentColor"/>
<path d="M17.7099 14.19C17.9916 14.19 18.2199 13.9617 18.2199 13.68C18.2199 13.3983 17.9916 13.17 17.7099 13.17C17.4283 13.17 17.2 13.3983 17.2 13.68C17.2 13.9617 17.4283 14.19 17.7099 14.19Z" fill="currentColor"/>
<path fill-rule="evenodd" clip-rule="evenodd" d="M17.7099 13.92C17.8425 13.92 17.95 13.8125 17.95 13.68C17.95 13.5474 17.8425 13.44 17.7099 13.44C17.5774 13.44 17.4699 13.5474 17.4699 13.68C17.4699 13.8125 17.5774 13.92 17.7099 13.92ZM16.45 13.68C16.45 12.9841 17.0141 12.42 17.7099 12.42C18.4058 12.42 18.9699 12.9841 18.9699 13.68C18.9699 14.3759 18.4058 14.94 17.7099 14.94C17.0141 14.94 16.45 14.3759 16.45 13.68Z" fill="currentColor"/>
</svg>
