<svg width="24" height="24" viewBox="0 0 24 24" fill="none" xmlns="http://www.w3.org/2000/svg">
<path fill-rule="evenodd" clip-rule="evenodd" d="M15.659 15.0606L15.038 12.9636H16.28L15.659 15.0606ZM11.385 11.1646L12.006 9.06758L12.627 11.1646H11.385ZM8.352 15.0606L7.73 12.9636H8.973L8.352 15.0606ZM20.1 11.1646H18.691L20.176 6.15658C20.316 5.67958 20.045 5.17858 19.568 5.03758C19.086 4.89558 18.591 5.16858 18.449 5.64458L16.813 11.1646H14.505L12.869 5.64458C12.756 5.26258 12.404 5.00058 12.006 5.00058C11.607 5.00058 11.256 5.26258 11.142 5.64458L9.507 11.1646H7.197L5.561 5.64458C5.421 5.16958 4.921 4.89658 4.442 5.03758C3.966 5.17858 3.694 5.67958 3.835 6.15658L5.319 11.1646H3.9C3.403 11.1646 3 11.5666 3 12.0636C3 12.5606 3.403 12.9636 3.9 12.9636H5.853L7.489 18.4836C7.602 18.8656 7.954 19.1276 8.352 19.1276C8.751 19.1276 9.102 18.8656 9.216 18.4836L10.851 12.9636H13.16L14.796 18.4836C14.909 18.8656 15.261 19.1276 15.659 19.1276C16.057 19.1276 16.409 18.8656 16.522 18.4836L18.158 12.9636H20.1C20.597 12.9636 21.001 12.5606 21.001 12.0636C21.001 11.5666 20.597 11.1646 20.1 11.1646Z" fill="current"/>
</svg>
