<svg width="24" height="24" viewBox="0 0 24 24" fill="none" xmlns="http://www.w3.org/2000/svg">
<path fill-rule="evenodd" clip-rule="evenodd" d="M5.80952 2.83815C5.80952 2.37525 6.18478 2 6.64767 2H17.3523C17.8152 2 18.1905 2.37525 18.1905 2.83815C18.1905 3.30105 17.8152 3.6763 17.3523 3.6763H6.64767C6.18478 3.6763 5.80952 3.30105 5.80952 2.83815ZM4.7429 5.52601C4.28001 5.52601 3.90475 5.90126 3.90475 6.36416C3.90475 6.82706 4.28001 7.20231 4.7429 7.20231H19.2571C19.72 7.20231 20.0952 6.82706 20.0952 6.36416C20.0952 5.90126 19.72 5.52601 19.2571 5.52601H4.7429ZM4 10.8645H20C20.1036 10.8645 20.1875 10.9485 20.1875 11.052V20C20.1875 20.1036 20.1036 20.1875 20 20.1875H4C3.89645 20.1875 3.8125 20.1036 3.8125 20V11.052C3.8125 10.9485 3.89645 10.8645 4 10.8645ZM2 11.052C2 9.94746 2.89543 9.05202 4 9.05202H20C21.1046 9.05202 22 9.94745 22 11.052V20C22 21.1046 21.1046 22 20 22H4C2.89543 22 2 21.1046 2 20V11.052ZM8.48551 12.8565C8.28814 12.4306 7.78285 12.2453 7.35692 12.4427C6.93098 12.64 6.7457 13.1453 6.94307 13.5713L9.08593 18.1955C9.22513 18.4959 9.52608 18.6882 9.85715 18.6882C10.1882 18.6882 10.4892 18.4959 10.6284 18.1955L12 15.2355L13.3716 18.1955C13.5108 18.4959 13.8118 18.6882 14.1429 18.6882C14.4739 18.6882 14.7749 18.4959 14.9141 18.1955L17.0569 13.5713C17.2543 13.1453 17.069 12.64 16.6431 12.4427C16.2172 12.2453 15.7119 12.4306 15.5145 12.8565L14.1429 15.8165L12.7712 12.8565C12.632 12.5561 12.3311 12.3639 12 12.3639C11.6689 12.3639 11.368 12.5561 11.2288 12.8565L9.85715 15.8165L8.48551 12.8565Z" fill="currentColor"/>
</svg>
