<svg width="16" height="16" viewBox="0 0 16 16" fill="none" xmlns="http://www.w3.org/2000/svg">
<path d="M7.99992 14.1667C11.4057 14.1667 14.1666 11.4058 14.1666 8.00001C14.1666 4.59425 11.4057 1.83334 7.99992 1.83334C4.59416 1.83334 1.83325 4.59425 1.83325 8.00001C1.83325 11.4058 4.59416 14.1667 7.99992 14.1667Z" stroke="#8E8E98" stroke-width="0.8" stroke-linecap="round" stroke-linejoin="round"/>
<path d="M8.0045 9.63774C7.78371 9.63774 7.60472 9.45876 7.60472 9.23796V9.1047C7.60472 8.85721 7.64279 8.65098 7.71894 8.48598C7.79509 8.32099 7.89345 8.17821 8.01402 8.05764C8.14094 7.93707 8.27102 7.82602 8.40429 7.72449C8.54389 7.61661 8.67398 7.50873 8.79455 7.40085C8.92147 7.28663 9.023 7.15654 9.09915 7.01059C9.1753 6.85829 9.21337 6.67744 9.21337 6.46802C9.21337 6.38553 9.20068 6.28717 9.1753 6.17295C9.15626 6.05238 9.1055 5.93815 9.023 5.83027C8.94685 5.71605 8.82945 5.62086 8.67081 5.54471C8.51216 5.46856 8.30275 5.43049 8.04258 5.43049C7.75067 5.43049 7.51905 5.47808 7.34771 5.57327C7.17638 5.66211 7.04629 5.77633 6.95745 5.91594C6.87495 6.05555 6.81784 6.19198 6.78611 6.32524C6.76073 6.45851 6.74804 6.56956 6.74804 6.6584V6.79166C6.74804 6.86264 6.69486 6.92492 6.62387 6.92492H6.02625C5.95816 6.92492 5.8998 6.87826 5.89135 6.8107C5.88501 6.75358 5.88184 6.68378 5.88184 6.60129C5.88184 6.45533 5.90405 6.29669 5.94847 6.12535C5.99289 5.95402 6.06586 5.78268 6.1674 5.61134C6.26893 5.44001 6.40536 5.28453 6.5767 5.14493C6.74804 5.00532 6.95745 4.89427 7.20493 4.81177C7.45876 4.72293 7.75702 4.67851 8.09969 4.67851C8.41063 4.67851 8.68033 4.71659 8.90878 4.79274C9.13722 4.86254 9.3276 4.9609 9.4799 5.08782C9.63854 5.20839 9.76228 5.34482 9.85113 5.49712C9.94631 5.64307 10.0129 5.7922 10.051 5.9445C10.0954 6.0968 10.1176 6.23958 10.1176 6.37284C10.1176 6.67744 10.0764 6.93444 9.99391 7.14385C9.91141 7.35326 9.80353 7.53094 9.67027 7.6769C9.54335 7.8165 9.40692 7.94025 9.26097 8.04813C9.12136 8.156 8.98493 8.26388 8.85166 8.37176C8.7184 8.47329 8.61052 8.59069 8.52803 8.72395C8.44553 8.85087 8.40429 9.00951 8.40429 9.19989V9.23796C8.40429 9.45876 8.2253 9.63774 8.0045 9.63774ZM8.0045 11.3226C7.74691 11.3226 7.53809 11.1137 7.53809 10.8561V10.7895C7.53809 10.5319 7.74691 10.3231 8.0045 10.3231C8.2621 10.3231 8.47092 10.5319 8.47092 10.7895V10.8561C8.47092 11.1137 8.2621 11.3226 8.0045 11.3226Z" fill="#8E8E98"/>
<path d="M8.0045 9.63774C7.78371 9.63774 7.60472 9.45876 7.60472 9.23796V9.1047C7.60472 8.85721 7.64279 8.65098 7.71894 8.48598C7.79509 8.32099 7.89345 8.17821 8.01402 8.05764C8.14094 7.93707 8.27102 7.82602 8.40429 7.72449C8.54389 7.61661 8.67398 7.50873 8.79455 7.40085C8.92147 7.28663 9.023 7.15654 9.09915 7.01059C9.1753 6.85829 9.21337 6.67744 9.21337 6.46802C9.21337 6.38553 9.20068 6.28717 9.1753 6.17295C9.15626 6.05238 9.1055 5.93815 9.023 5.83027C8.94685 5.71605 8.82945 5.62086 8.67081 5.54471C8.51216 5.46856 8.30275 5.43049 8.04258 5.43049C7.75067 5.43049 7.51905 5.47808 7.34771 5.57327C7.17638 5.66211 7.04629 5.77633 6.95745 5.91594C6.87495 6.05555 6.81784 6.19198 6.78611 6.32524C6.76073 6.45851 6.74804 6.56956 6.74804 6.6584V6.79166C6.74804 6.86264 6.69486 6.92492 6.62387 6.92492H6.02625C5.95816 6.92492 5.8998 6.87826 5.89135 6.8107C5.88501 6.75358 5.88184 6.68378 5.88184 6.60129C5.88184 6.45533 5.90405 6.29669 5.94847 6.12535C5.99289 5.95402 6.06586 5.78268 6.1674 5.61134C6.26893 5.44001 6.40536 5.28453 6.5767 5.14493C6.74804 5.00532 6.95745 4.89427 7.20493 4.81177C7.45876 4.72293 7.75702 4.67851 8.09969 4.67851C8.41063 4.67851 8.68033 4.71659 8.90878 4.79274C9.13722 4.86254 9.3276 4.9609 9.4799 5.08782C9.63854 5.20839 9.76228 5.34482 9.85113 5.49712C9.94631 5.64307 10.0129 5.7922 10.051 5.9445C10.0954 6.0968 10.1176 6.23958 10.1176 6.37284C10.1176 6.67744 10.0764 6.93444 9.99391 7.14385C9.91141 7.35326 9.80353 7.53094 9.67027 7.6769C9.54335 7.8165 9.40692 7.94025 9.26097 8.04813C9.12136 8.156 8.98493 8.26388 8.85166 8.37176C8.7184 8.47329 8.61052 8.59069 8.52803 8.72395C8.44553 8.85087 8.40429 9.00951 8.40429 9.19989V9.23796C8.40429 9.45876 8.2253 9.63774 8.0045 9.63774ZM8.0045 11.3226C7.74691 11.3226 7.53809 11.1137 7.53809 10.8561V10.7895C7.53809 10.5319 7.74691 10.3231 8.0045 10.3231C8.2621 10.3231 8.47092 10.5319 8.47092 10.7895V10.8561C8.47092 11.1137 8.2621 11.3226 8.0045 11.3226Z" stroke="#8E8E98"/>
</svg>
