<svg width="20" height="20" viewBox="0 0 20 20" fill="none" xmlns="http://www.w3.org/2000/svg">
<path fill-rule="evenodd" clip-rule="evenodd" d="M9.92196 18.185C12.1278 18.185 14.2028 17.3258 15.7628 15.7658C16.5511 14.9767 17.162 14.0575 17.577 13.0333C17.732 12.6492 17.547 12.2125 17.1628 12.0567C16.7828 11.9017 16.342 12.0858 16.187 12.47C15.847 13.3067 15.3478 14.0592 14.7011 14.7058C13.4253 15.9817 11.7278 16.685 9.92196 16.685C8.11696 16.685 6.41946 15.9817 5.14279 14.7058C2.50779 12.07 2.50779 7.78166 5.14279 5.14582C6.41946 3.86916 8.11696 3.16666 9.92196 3.16666C11.7278 3.16666 13.4253 3.86916 14.7011 5.14582L15.602 6.04666H13.052C12.6378 6.04666 12.3011 6.38166 12.3011 6.79582C12.3011 7.21082 12.6378 7.54582 13.052 7.54582H17.4128C17.5103 7.54582 17.6086 7.52582 17.7003 7.48832C17.7911 7.44999 17.8745 7.39582 17.9436 7.32666C17.9445 7.32582 17.9445 7.32416 17.9461 7.32332C18.0136 7.25499 18.0678 7.17332 18.1053 7.08249C18.1428 6.99249 18.162 6.89666 18.1628 6.79999C18.1628 6.79832 18.1636 6.79749 18.1636 6.79582V2.43582C18.1636 2.02166 17.827 1.68582 17.4128 1.68582C16.9986 1.68582 16.6628 2.02166 16.6628 2.43582V4.98582L15.7628 4.08582C14.2028 2.52499 12.1278 1.66666 9.92196 1.66666C7.71612 1.66666 5.64112 2.52499 4.08112 4.08582C0.861956 7.30582 0.861956 12.5458 4.08112 15.7658C5.64112 17.3258 7.71612 18.185 9.92196 18.185Z" fill="#526EFF"/>
</svg>
