<svg width="24" height="24" viewBox="0 0 24 24" fill="none" xmlns="http://www.w3.org/2000/svg">
<rect width="24" height="24" rx="4" fill="#526EFF"/>
<path d="M12.5 17.1709C14.9883 17.1709 16.4785 15.9678 16.4785 14.0742V14.0674C16.4785 12.5156 15.5488 11.6748 13.4844 11.2646L12.4385 11.0527C11.3037 10.8271 10.7979 10.4648 10.7979 9.84277V9.83594C10.7979 9.13184 11.4336 8.64648 12.4932 8.63965C13.5117 8.63965 14.2227 9.11133 14.3252 9.88379L14.332 9.96582H16.2803L16.2734 9.83594C16.1777 8.10645 14.7764 6.96484 12.4932 6.96484C10.3057 6.96484 8.7334 8.1543 8.7334 9.95898V9.96582C8.7334 11.4492 9.71777 12.3789 11.666 12.7686L12.7051 12.9736C13.9287 13.2266 14.4141 13.5615 14.4141 14.2314V14.2383C14.4141 14.9902 13.6963 15.4893 12.5547 15.4893C11.4268 15.4893 10.6133 15.0107 10.4834 14.2451L10.4697 14.1699H8.52148L8.52832 14.2793C8.64453 16.0977 10.1553 17.1709 12.5 17.1709Z" fill="white"/>
</svg>
