<svg width="24" height="24" viewBox="0 0 24 24" fill="none" xmlns="http://www.w3.org/2000/svg">
<rect width="24" height="24" rx="4" fill="#222227"/>
<path d="M3.125 15H4.30469V12.7812H6.59766V11.8477H4.30469V10.3359H6.81641V9.36328H3.125V15ZM7.51562 15H8.69531V12.957H9.64062L10.6914 15H12.0273L10.8398 12.7812C11.4648 12.5352 11.8594 11.918 11.8594 11.1758V11.168C11.8594 10.0352 11.1094 9.36328 9.84375 9.36328H7.51562V15ZM8.69531 12.0625V10.2852H9.69922C10.2812 10.2852 10.6523 10.6289 10.6523 11.168V11.1758C10.6523 11.7305 10.3008 12.0625 9.71484 12.0625H8.69531ZM12.6406 15H16.375V14.0273H13.8203V12.6094H16.2305V11.6875H13.8203V10.3359H16.375V9.36328H12.6406V15ZM17.2266 15H20.9609V14.0273H18.4062V12.6094H20.8164V11.6875H18.4062V10.3359H20.9609V9.36328H17.2266V15Z" fill="white"/>
</svg>
