<svg width="24" height="24" viewBox="0 0 24 24" fill="none" xmlns="http://www.w3.org/2000/svg">
<rect width="24" height="24" rx="4" fill="#526EFF"/>
<path d="M3.6748 17H5.90332L8.05664 13.541H8.125L10.292 17H12.6436L9.45117 12.0713V12.0439L12.6846 7.13574H10.3809L8.2959 10.6904H8.2207L6.12207 7.13574H3.69531L6.8125 12.0098V12.0303L3.6748 17ZM17.1963 17.1709C19.6846 17.1709 21.1748 15.9678 21.1748 14.0742V14.0674C21.1748 12.5156 20.2451 11.6748 18.1807 11.2646L17.1348 11.0527C16 10.8271 15.4941 10.4648 15.4941 9.84277V9.83594C15.4941 9.13184 16.1299 8.64648 17.1895 8.63965C18.208 8.63965 18.9189 9.11133 19.0215 9.88379L19.0283 9.96582H20.9766L20.9697 9.83594C20.874 8.10645 19.4727 6.96484 17.1895 6.96484C15.002 6.96484 13.4297 8.1543 13.4297 9.95898V9.96582C13.4297 11.4492 14.4141 12.3789 16.3623 12.7686L17.4014 12.9736C18.625 13.2266 19.1104 13.5615 19.1104 14.2314V14.2383C19.1104 14.9902 18.3926 15.4893 17.251 15.4893C16.123 15.4893 15.3096 15.0107 15.1797 14.2451L15.166 14.1699H13.2178L13.2246 14.2793C13.3408 16.0977 14.8516 17.1709 17.1963 17.1709Z" fill="white"/>
</svg>
